<svg width="23" height="23" viewBox="0 0 23 23" fill="none" xmlns="http://www.w3.org/2000/svg">
<g clip-path="url(#clip0)">
<path d="M22.6665 11.5334C22.6665 11.9681 22.3142 12.3204 21.8796 12.3204H2.92925L7.8933 17.2799C8.04428 17.4308 8.12206 17.6321 8.12206 17.8334C8.12206 18.0348 8.04428 18.2361 7.8933 18.387C7.58677 18.6936 7.08807 18.6936 6.78154 18.387L0.486115 12.087C0.193304 11.7942 0.193304 11.2727 0.486115 10.9753L6.78611 4.67985C7.09265 4.37332 7.59134 4.37332 7.89788 4.67985C8.20441 4.98639 8.20441 5.48508 7.89788 5.79162L2.9384 10.7511H21.8842C22.3188 10.7465 22.6665 11.0988 22.6665 11.5334Z" fill="black"/>
</g>
<defs>
<clipPath id="clip0">
<rect width="22.4" height="22.4" fill="white" transform="matrix(-1 0 0 1 22.6665 0.333374)"/>
</clipPath>
</defs>
</svg>
