<svg width="18" height="19" viewBox="0 0 18 19" fill="none" xmlns="http://www.w3.org/2000/svg">
<g clip-path="url(#clip0)">
<path d="M9 0.772949C4.03749 0.772949 0 4.81044 0 9.77295C0 14.7355 4.03749 18.7729 9 18.7729C13.9625 18.7729 18 14.7355 18 9.77295C18 4.81044 13.9625 0.772949 9 0.772949ZM9 17.6479C4.65765 17.6479 1.12501 14.1153 1.12501 9.77295C1.12501 5.4306 4.65765 1.89795 9 1.89795C13.3424 1.89795 16.875 5.4306 16.875 9.77295C16.875 14.1153 13.3424 17.6479 9 17.6479Z" fill="black"/>
<path d="M9.5625 4.14795H8.4375V10.0058L11.9773 13.5456L12.7727 12.7502L9.5625 9.54002V4.14795Z" fill="black"/>
</g>
<defs>
<clipPath id="clip0">
<rect width="18" height="18" fill="white" transform="translate(0 0.772949)"/>
</clipPath>
</defs>
</svg>
