<svg width="22" height="21" viewBox="0 0 22 21" fill="none" xmlns="http://www.w3.org/2000/svg">
<g clip-path="url(#clip0)">
<path d="M10.9293 8.4751C8.87791 8.4751 7.21496 6.87749 7.21496 4.90674C7.21496 2.93599 8.87791 1.33838 10.9293 1.33838C12.9806 1.33838 14.6436 2.93599 14.6436 4.90674C14.6436 6.87749 12.9806 8.4751 10.9293 8.4751Z" fill="black"/>
<path d="M3.41555 8.47504C2.11872 8.47504 1.06744 7.46506 1.06744 6.21918C1.06744 4.9733 2.11872 3.96332 3.41555 3.96332C4.71238 3.96332 5.76367 4.9733 5.76367 6.21918C5.76367 7.46506 4.71238 8.47504 3.41555 8.47504Z" fill="black"/>
<path d="M18.4434 8.47504C17.1466 8.47504 16.0953 7.46506 16.0953 6.21918C16.0953 4.9733 17.1466 3.96332 18.4434 3.96332C19.7402 3.96332 20.7915 4.9733 20.7915 6.21918C20.7915 7.46506 19.7402 8.47504 18.4434 8.47504Z" fill="black"/>
<path d="M16.1299 10.5009C17.0542 9.77333 17.8913 9.86964 18.96 9.86964C20.5585 9.86964 21.8589 11.1116 21.8589 12.6378V17.1171C21.8589 17.7799 21.2958 18.3189 20.6033 18.3189C17.6137 18.3189 17.9738 18.3708 17.9738 18.195C17.9738 15.021 18.3651 12.6933 16.1299 10.5009Z" fill="black"/>
<path d="M9.91313 9.88604C11.7798 9.73646 13.4024 9.88777 14.8019 10.9976C17.1439 12.7998 16.6932 15.2264 16.6932 18.195C16.6932 18.9804 16.0281 19.6314 15.1981 19.6314C6.18637 19.6314 5.82771 19.9106 5.29332 18.7737C5.11806 18.3892 5.16609 18.5114 5.16609 14.8333C5.16609 11.912 7.7991 9.88604 9.91313 9.88604Z" fill="black"/>
<path d="M2.89888 9.86954C3.97347 9.86954 4.80594 9.77421 5.729 10.5008C3.51046 12.6769 3.88509 14.8458 3.88509 18.1949C3.88509 18.3718 4.18407 18.3187 1.30045 18.3187C0.58321 18.3187 2.28882e-05 17.7605 2.28882e-05 17.0743V12.6377C2.28882e-05 11.1115 1.30045 9.86954 2.89888 9.86954Z" fill="black"/>
</g>
<defs>
<clipPath id="clip0">
<rect width="21.8588" height="21" fill="white" transform="matrix(-1 0 0 1 21.8589 0)"/>
</clipPath>
</defs>
</svg>
