<svg width="14" height="15" viewBox="0 0 14 15" fill="none" xmlns="http://www.w3.org/2000/svg">
<path d="M6.99999 13.9544C6.80068 13.9544 6.60852 13.8822 6.45877 13.751C5.89321 13.2565 5.34794 12.7918 4.86686 12.3818L4.8644 12.3797C3.45396 11.1777 2.23599 10.1397 1.38855 9.11723C0.441238 7.97414 0 6.89032 0 5.70631C0 4.55595 0.394454 3.49467 1.11062 2.71783C1.83534 1.93181 2.82975 1.4989 3.911 1.4989C4.71914 1.4989 5.45923 1.75439 6.11068 2.25822C6.43944 2.51254 6.73744 2.82379 6.99999 3.18684C7.26264 2.82379 7.56053 2.51254 7.8894 2.25822C8.54085 1.75439 9.28094 1.4989 10.0891 1.4989C11.1702 1.4989 12.1647 1.93181 12.8895 2.71783C13.6056 3.49467 14 4.55595 14 5.70631C14 6.89032 13.5588 7.97414 12.6115 9.11713C11.7641 10.1397 10.5462 11.1776 9.136 12.3795C8.65407 12.7901 8.10794 13.2555 7.54109 13.7513C7.39145 13.8822 7.19919 13.9544 6.99999 13.9544V13.9544ZM3.911 2.319C3.06153 2.319 2.28117 2.65802 1.71347 3.27368C1.13733 3.89864 0.819991 4.76253 0.819991 5.70631C0.819991 6.70212 1.19009 7.59271 2.01991 8.59396C2.82196 9.56178 4.01493 10.5784 5.39621 11.7556L5.39878 11.7577C5.88167 12.1693 6.42908 12.6358 6.99881 13.134C7.57196 12.6349 8.12022 12.1676 8.60408 11.7554C9.98526 10.5782 11.1781 9.56178 11.9802 8.59396C12.8099 7.59271 13.18 6.70212 13.18 5.70631C13.18 4.76253 12.8626 3.89864 12.2865 3.27368C11.7189 2.65802 10.9384 2.319 10.0891 2.319C9.46679 2.319 8.89546 2.51682 8.39099 2.90689C7.94142 3.25467 7.62825 3.69431 7.44464 4.00192C7.35022 4.16011 7.18402 4.25453 6.99999 4.25453C6.81595 4.25453 6.64975 4.16011 6.55533 4.00192C6.37183 3.69431 6.05866 3.25467 5.60898 2.90689C5.10451 2.51682 4.53318 2.319 3.911 2.319V2.319Z" fill="white"/>
</svg>
