<svg width="80" height="32" viewBox="0 0 80 32" fill="none" xmlns="http://www.w3.org/2000/svg">
<path d="M39.8325 12.4182H46.8377V19.4234H39.8325V12.4182Z" fill="#49C5B6"/>
<path d="M16.4852 0.000244141C7.27977 0.000244141 -6.31628e-05 6.90435 -6.31628e-05 16.0629C-6.31628e-05 25.2214 7.27977 31.8421 16.4852 31.8421C22.5439 31.8421 27.4285 29.1666 30.1995 24.4229L25.3619 21.0413C23.2954 24.376 20.4304 26.2546 16.4852 26.2546C10.7553 26.2546 6.52831 22.0746 6.52831 16.1098C6.52831 10.0981 10.7553 5.87108 16.4852 5.87108C20.4304 5.87108 23.2954 7.74975 25.3619 11.0844L30.1995 7.70278C27.4285 2.95915 22.5439 0.000244141 16.4852 0.000244141Z" fill="black"/>
<path d="M52.4888 -7.24878e-06V31.8418H62.4393C72.565 31.8418 80.0001 24.9799 80.0001 15.6662C80.0001 6.25691 72.979 -7.24878e-06 62.8533 -7.24878e-06H52.4888ZM62.8055 5.82704C69.158 5.82704 73.4088 9.45701 73.4088 15.6662C73.4088 21.732 69.158 25.6963 62.8055 25.6963H58.9367V5.82704H62.8055Z" fill="black"/>
<path d="M52.4889 0.0383398L33.3838 0.0383301V31.8419H39.784L39.8318 19.5733V13.7462V5.86538L52.4889 5.86537V0.0383398Z" fill="black"/>
</svg>
