<svg width="18" height="19" viewBox="0 0 18 19" fill="none" xmlns="http://www.w3.org/2000/svg">
<g clip-path="url(#clip0)">
<path d="M9 18.7729C6.869 18.7729 4.80213 18.0148 3.18013 16.6382C2.79928 16.3152 2.44202 15.9571 2.11838 15.5739C0.752238 13.9546 0 11.8945 0 9.77295C0 7.36893 0.936141 5.10884 2.63602 3.40896C4.33589 1.70909 6.59598 0.772949 9 0.772949C11.404 0.772949 13.6641 1.70909 15.364 3.40896C17.0639 5.10884 18 7.36893 18 9.77295C18 11.8946 17.2478 13.9546 15.8818 15.5737C15.558 15.9571 15.2007 16.3152 14.8198 16.6383C13.1979 18.0148 11.131 18.7729 9 18.7729ZM9 1.89795C4.65771 1.89795 1.125 5.43066 1.125 9.77295C1.125 11.6294 1.78309 13.4318 2.97805 14.8482C3.26141 15.1837 3.57434 15.4974 3.90797 15.7804C5.32702 16.9847 7.13535 17.6479 9 17.6479C10.8647 17.6479 12.673 16.9847 14.0919 15.7805C14.4257 15.4974 14.7386 15.1837 15.0221 14.848C16.2169 13.4318 16.875 11.6294 16.875 9.77295C16.875 5.43066 13.3423 1.89795 9 1.89795Z" fill="black"/>
<path d="M9 9.77295C7.139 9.77295 5.625 8.25895 5.625 6.39795C5.625 4.53695 7.139 3.02295 9 3.02295C10.861 3.02295 12.375 4.53695 12.375 6.39795C12.375 8.25895 10.861 9.77295 9 9.77295ZM9 4.14795C7.75934 4.14795 6.75 5.15729 6.75 6.39795C6.75 7.63861 7.75934 8.64795 9 8.64795C10.2407 8.64795 11.25 7.63861 11.25 6.39795C11.25 5.15729 10.2407 4.14795 9 4.14795Z" fill="black"/>
<path d="M14.4563 16.772C14.411 16.772 14.3649 16.7665 14.3189 16.7549C14.0176 16.6793 13.8347 16.3737 13.9103 16.0724C14.0113 15.6701 14.0625 15.2539 14.0625 14.8354C14.0625 12.0832 11.8249 9.81282 9.07407 9.7733L9 9.77295L8.92593 9.7733C6.17505 9.81282 3.9375 12.0832 3.9375 14.8354C3.9375 15.2539 3.98872 15.6701 4.08969 16.0724C4.16531 16.3737 3.98236 16.6793 3.68107 16.7549C3.37978 16.8306 3.07417 16.6476 2.99855 16.3463C2.87508 15.8545 2.8125 15.3462 2.8125 14.8354C2.8125 13.1979 3.44591 11.6544 4.59605 10.4891C5.74506 9.32492 7.27794 8.67122 8.91232 8.64837C8.91496 8.64834 8.91756 8.64834 8.9202 8.64834L9 8.64795L9.0798 8.6483C9.08244 8.6483 9.08504 8.6483 9.08768 8.64834C10.7221 8.67115 12.2549 9.32488 13.404 10.489C14.5541 11.6544 15.1875 13.1979 15.1875 14.8354C15.1875 15.3462 15.1249 15.8545 15.0015 16.3463C14.9374 16.6016 14.7081 16.772 14.4563 16.772Z" fill="black"/>
</g>
<defs>
<clipPath id="clip0">
<rect width="18" height="18" fill="white" transform="translate(0 0.772949)"/>
</clipPath>
</defs>
</svg>
