<svg width="21" height="21" viewBox="0 0 21 21" fill="none" xmlns="http://www.w3.org/2000/svg">
<path d="M0 10.5002C0 10.9076 0.33027 11.2379 0.737745 11.2379H18.5037L13.8499 15.8874C13.7083 16.029 13.6354 16.2177 13.6354 16.4064C13.6354 16.5951 13.7083 16.7839 13.8499 16.9254C14.1373 17.2128 14.6048 17.2128 14.8922 16.9254L20.7941 11.0191C21.0686 10.7446 21.0686 10.2557 20.7941 9.97687L14.8879 4.07491C14.6005 3.78753 14.133 3.78753 13.8456 4.07491C13.5582 4.36229 13.5582 4.82981 13.8456 5.11719L18.4951 9.7667H0.733456C0.32598 9.76241 0 10.0927 0 10.5002Z" fill="black"/>
</svg>
