<svg width="22" height="22" viewBox="0 0 22 22" fill="none" xmlns="http://www.w3.org/2000/svg">
<path d="M21.3666 13.47C22.9598 6.53569 16.6879 0.236208 9.3225 1.4455C5.324 -0.957985 0 1.75803 0 6.3661C0 7.43777 0.30525 8.44107 0.836 9.30586C-0.644417 16.2562 5.67875 22.4651 13.0378 21.1732C18.2398 23.8377 23.9883 18.5238 21.3666 13.47ZM14.3651 17.6519C12.4328 18.4217 9.25283 18.4261 7.32875 17.4503C4.58517 16.0333 4.0975 12.8432 6.46433 12.8432C8.24817 12.8432 7.6835 14.8577 9.48475 15.679C10.3116 16.0493 12.089 16.0875 13.1221 15.4127C14.1423 14.7512 14.0488 13.7106 13.4943 13.2134C12.0248 11.8993 7.82008 12.4214 5.89783 10.1209C5.06275 9.12296 4.90508 7.3623 5.93175 6.08554C7.72108 3.85519 12.9718 3.71935 15.2295 5.40365C17.314 6.96631 16.7512 9.04039 15.0691 9.04039C13.046 9.04039 14.1093 6.4762 10.8433 6.4762C8.4755 6.4762 7.54417 8.10723 9.21158 8.90099C11.4721 9.98864 17.2324 9.6255 17.2324 13.8758C17.2278 15.6444 16.1086 16.9629 14.3651 17.6519Z" fill="black"/>
</svg>
