<svg width="35" height="36" viewBox="0 0 35 36" fill="none" xmlns="http://www.w3.org/2000/svg">
<circle cx="17.5" cy="18.2333" r="17.25" fill="black" fill-opacity="0.3" stroke="white" stroke-width="0.5"/>
<g clip-path="url(#clip0)">
<path d="M24.867 16.8361L19.9087 12.0236C19.7827 11.9011 19.5942 11.8666 19.4338 11.9343C19.2722 12.0031 19.1667 12.1618 19.1667 12.3374V14.8177C14.6499 14.8959 11 18.5942 11 23.1291C11 23.3286 11.1406 23.4919 11.3337 23.5421C11.3681 23.5508 11.4025 23.5549 11.4369 23.5549C11.5967 23.5549 11.7525 23.4633 11.8324 23.3192C13.142 20.9532 15.6352 19.4832 18.3395 19.4832H19.1667V21.9624C19.1667 22.138 19.2722 22.2966 19.4338 22.3655C19.5937 22.4331 19.7832 22.3987 19.9087 22.2762L24.867 17.4637C24.9522 17.3815 25 17.2683 25 17.1499C25 17.0315 24.9522 16.9183 24.867 16.8361V16.8361Z" fill="white"/>
</g>
<defs>
<clipPath id="clip0">
<rect width="14" height="14" fill="white" transform="translate(11 10.7333)"/>
</clipPath>
</defs>
</svg>
